<svg xmlns="http://www.w3.org/2000/svg" xmlns:xlink="http://www.w3.org/1999/xlink" version="1.1" x="0px" y="0px" viewBox="0 0 100 125" style="enable-background:new 0 0 100 100;" xml:space="preserve"><g><path d="M76.2611465,17.4626331c-5.5944443,0-10.1457825,4.5517178-10.1457825,10.1461601   s4.5513382,10.1457729,10.1457825,10.1457729c5.5944366,0,10.1465378-4.5513306,10.1465378-10.1457729   S81.8555832,17.4626331,76.2611465,17.4626331z M76.2611465,35.3983688c-4.2951584,0-7.7895813-3.4944191-7.7895813-7.7895756   c0-4.2955418,3.4944229-7.789959,7.7895813-7.789959c4.2959213,0,7.7903366,3.4944172,7.7903366,7.789959   C84.0514832,31.9039497,80.5570679,35.3983688,76.2611465,35.3983688z"/><path d="M87.6371765,3.8216739H11.9419279c-4.3323569,0-7.8570704,3.5247135-7.8570704,7.8570704v58.0137672v13.6450882v4.0363922   c0,4.3323517,3.5247135,7.8570709,7.8570704,7.8570709h75.6952515c4.3327408,0,7.8570709-3.5247192,7.8570709-7.8570709v-4.0363922   v-13.724472V11.6787443C95.4942474,7.3463874,91.9699173,3.8216739,87.6371765,3.8216739z M93.1380463,87.3739929   c0,3.0330658-2.4674149,5.5008698-5.5008698,5.5008698H11.9419279c-3.0330715,0-5.5008698-2.467804-5.5008698-5.5008698V70.6925735   l28.9198303-27.8037567l15.1908112,14.4999886L61.1999054,46.278923l31.9381409,24.4939957V87.3739929z M93.1380463,67.8061447   L60.959549,43.1281166L50.4782143,54.0646629L35.3547554,39.629097L6.4410582,67.4272003v-55.748455   c0-3.0330715,2.4677982-5.5008698,5.5008698-5.5008698h75.6952515c3.0334549,0,5.5008698,2.4677982,5.5008698,5.5008698V67.8061447   z"/></g><text x="0" y="115" fill="#000000" font-size="5px" font-weight="bold" font-family="'Helvetica Neue', Helvetica, Arial-Unicode, Arial, Sans-serif">Created by Brad</text><text x="0" y="120" fill="#000000" font-size="5px" font-weight="bold" font-family="'Helvetica Neue', Helvetica, Arial-Unicode, Arial, Sans-serif">from the Noun Project</text></svg>